<mxfile host="app.diagrams.net" agent="Mozilla/5.0 (Windows NT 10.0; Win64; x64) AppleWebKit/537.36 (KHTML, like Gecko) Chrome/129.0.0.0 Safari/537.36" version="24.7.17">
  <diagram name="Page-1" id="RWWpy2Qp6EzFXS9Cq0l8">
    <mxGraphModel dx="1434" dy="772" grid="1" gridSize="10" guides="1" tooltips="1" connect="1" arrows="1" fold="1" page="1" pageScale="1" pageWidth="827" pageHeight="1169" math="0" shadow="0">
      <root>
        <mxCell id="0" />
        <mxCell id="1" parent="0" />
        <mxCell id="Lf78Nr-eyMSIHXP10O7s-11" value="id_alumno" style="ellipse;whiteSpace=wrap;html=1;" vertex="1" parent="1">
          <mxGeometry x="10" y="10" width="90" height="40" as="geometry" />
        </mxCell>
        <mxCell id="Lf78Nr-eyMSIHXP10O7s-12" value="nombre" style="ellipse;whiteSpace=wrap;html=1;" vertex="1" parent="1">
          <mxGeometry x="10" y="50" width="90" height="40" as="geometry" />
        </mxCell>
        <mxCell id="Lf78Nr-eyMSIHXP10O7s-13" value="apellidos" style="ellipse;whiteSpace=wrap;html=1;" vertex="1" parent="1">
          <mxGeometry x="10" y="90" width="90" height="40" as="geometry" />
        </mxCell>
        <mxCell id="Lf78Nr-eyMSIHXP10O7s-14" value="correo" style="ellipse;whiteSpace=wrap;html=1;" vertex="1" parent="1">
          <mxGeometry x="10" y="130" width="90" height="40" as="geometry" />
        </mxCell>
        <mxCell id="Lf78Nr-eyMSIHXP10O7s-15" value="teléfono" style="ellipse;whiteSpace=wrap;html=1;" vertex="1" parent="1">
          <mxGeometry x="10" y="170" width="90" height="40" as="geometry" />
        </mxCell>
        <mxCell id="Lf78Nr-eyMSIHXP10O7s-16" value="fecha_nacimien" style="ellipse;whiteSpace=wrap;html=1;" vertex="1" parent="1">
          <mxGeometry x="10" y="210" width="90" height="40" as="geometry" />
        </mxCell>
        <mxCell id="Lf78Nr-eyMSIHXP10O7s-17" value="dirección" style="ellipse;whiteSpace=wrap;html=1;" vertex="1" parent="1">
          <mxGeometry x="10" y="250" width="90" height="40" as="geometry" />
        </mxCell>
        <mxCell id="Lf78Nr-eyMSIHXP10O7s-19" value="id_profesor" style="ellipse;whiteSpace=wrap;html=1;" vertex="1" parent="1">
          <mxGeometry x="710" y="50" width="90" height="40" as="geometry" />
        </mxCell>
        <mxCell id="Lf78Nr-eyMSIHXP10O7s-20" value="nombre" style="ellipse;whiteSpace=wrap;html=1;" vertex="1" parent="1">
          <mxGeometry x="710" y="90" width="90" height="40" as="geometry" />
        </mxCell>
        <mxCell id="Lf78Nr-eyMSIHXP10O7s-21" value="apellidos" style="ellipse;whiteSpace=wrap;html=1;" vertex="1" parent="1">
          <mxGeometry x="710" y="130" width="90" height="40" as="geometry" />
        </mxCell>
        <mxCell id="Lf78Nr-eyMSIHXP10O7s-22" value="correo" style="ellipse;whiteSpace=wrap;html=1;" vertex="1" parent="1">
          <mxGeometry x="710" y="170" width="90" height="40" as="geometry" />
        </mxCell>
        <mxCell id="Lf78Nr-eyMSIHXP10O7s-23" value="teléfono" style="ellipse;whiteSpace=wrap;html=1;" vertex="1" parent="1">
          <mxGeometry x="710" y="210" width="90" height="40" as="geometry" />
        </mxCell>
        <mxCell id="Lf78Nr-eyMSIHXP10O7s-24" value="departamento" style="ellipse;whiteSpace=wrap;html=1;" vertex="1" parent="1">
          <mxGeometry x="710" y="250" width="90" height="40" as="geometry" />
        </mxCell>
        <mxCell id="Lf78Nr-eyMSIHXP10O7s-25" value="id_nota" style="ellipse;whiteSpace=wrap;html=1;" vertex="1" parent="1">
          <mxGeometry x="10" y="385" width="90" height="40" as="geometry" />
        </mxCell>
        <mxCell id="Lf78Nr-eyMSIHXP10O7s-26" value="id_alumno" style="ellipse;whiteSpace=wrap;html=1;" vertex="1" parent="1">
          <mxGeometry x="10" y="425" width="90" height="40" as="geometry" />
        </mxCell>
        <mxCell id="Lf78Nr-eyMSIHXP10O7s-27" value="id_profesor" style="ellipse;whiteSpace=wrap;html=1;" vertex="1" parent="1">
          <mxGeometry x="10" y="465" width="90" height="40" as="geometry" />
        </mxCell>
        <mxCell id="Lf78Nr-eyMSIHXP10O7s-28" value="id_asignatura" style="ellipse;whiteSpace=wrap;html=1;" vertex="1" parent="1">
          <mxGeometry x="10" y="505" width="90" height="40" as="geometry" />
        </mxCell>
        <mxCell id="Lf78Nr-eyMSIHXP10O7s-29" value="calificación" style="ellipse;whiteSpace=wrap;html=1;" vertex="1" parent="1">
          <mxGeometry x="10" y="545" width="90" height="40" as="geometry" />
        </mxCell>
        <mxCell id="Lf78Nr-eyMSIHXP10O7s-30" value="fecha" style="ellipse;whiteSpace=wrap;html=1;" vertex="1" parent="1">
          <mxGeometry x="10" y="585" width="90" height="40" as="geometry" />
        </mxCell>
        <mxCell id="Lf78Nr-eyMSIHXP10O7s-31" value="id_asignatura" style="ellipse;whiteSpace=wrap;html=1;" vertex="1" parent="1">
          <mxGeometry x="710" y="380" width="90" height="40" as="geometry" />
        </mxCell>
        <mxCell id="Lf78Nr-eyMSIHXP10O7s-32" value="nombre" style="ellipse;whiteSpace=wrap;html=1;" vertex="1" parent="1">
          <mxGeometry x="710" y="420" width="90" height="40" as="geometry" />
        </mxCell>
        <mxCell id="Lf78Nr-eyMSIHXP10O7s-33" value="créditos" style="ellipse;whiteSpace=wrap;html=1;" vertex="1" parent="1">
          <mxGeometry x="710" y="460" width="90" height="40" as="geometry" />
        </mxCell>
        <mxCell id="Lf78Nr-eyMSIHXP10O7s-34" value="curso" style="ellipse;whiteSpace=wrap;html=1;" vertex="1" parent="1">
          <mxGeometry x="710" y="500" width="90" height="40" as="geometry" />
        </mxCell>
        <mxCell id="Lf78Nr-eyMSIHXP10O7s-35" value="Alumnos" style="rounded=0;whiteSpace=wrap;html=1;" vertex="1" parent="1">
          <mxGeometry x="100" y="250" width="100" height="40" as="geometry" />
        </mxCell>
        <mxCell id="Lf78Nr-eyMSIHXP10O7s-36" value="Profesor" style="rounded=0;whiteSpace=wrap;html=1;" vertex="1" parent="1">
          <mxGeometry x="610" y="250" width="100" height="40" as="geometry" />
        </mxCell>
        <mxCell id="Lf78Nr-eyMSIHXP10O7s-37" value="Asignaturas" style="rounded=0;whiteSpace=wrap;html=1;" vertex="1" parent="1">
          <mxGeometry x="610" y="380" width="100" height="40" as="geometry" />
        </mxCell>
        <mxCell id="Lf78Nr-eyMSIHXP10O7s-38" value="Notas" style="rounded=0;whiteSpace=wrap;html=1;" vertex="1" parent="1">
          <mxGeometry x="100" y="380" width="100" height="40" as="geometry" />
        </mxCell>
        <mxCell id="Lf78Nr-eyMSIHXP10O7s-40" value="es delegado" style="rhombus;whiteSpace=wrap;html=1;" vertex="1" parent="1">
          <mxGeometry x="200" y="160" width="80" height="50" as="geometry" />
        </mxCell>
        <mxCell id="Lf78Nr-eyMSIHXP10O7s-41" value="es tutor" style="rhombus;whiteSpace=wrap;html=1;" vertex="1" parent="1">
          <mxGeometry x="530" y="160" width="80" height="50" as="geometry" />
        </mxCell>
      </root>
    </mxGraphModel>
  </diagram>
</mxfile>
